<svg xmlns="http://www.w3.org/2000/svg" viewBox="0 0 64 64">
  <defs>
    <linearGradient id="g" x1="0" y1="0" x2="1" y2="1">
      <stop offset="0%" stop-color="#059669"/>
      <stop offset="100%" stop-color="#065f46"/>
    </linearGradient>
  </defs>
  <rect x="3" y="3" width="58" height="58" rx="14" fill="url(#g)"/>
  <path d="M18 22h20a9 9 0 1 1 0 18H22v4h22a3 3 0 1 1 0 6H20a4 4 0 0 1-4-4v-6a6 6 0 0 1 6-6h16a3 3 0 1 0 0-6H18a3 3 0 1 1 0-6Z" fill="#fff"/>
  <rect x="44" y="16" width="3" height="34" rx="1.5" fill="#fff"/>
</svg>
